<?xml version="1.0" encoding="UTF-8" standalone="no"?>
<svg
   width="728"
   height="174"
   viewBox="0 0 728 174"
   fill="none"
   version="1.1"
   id="svg152"
   sodipodi:docname="Group 9.svg"
   inkscape:version="1.2.2 (b0a8486, 2022-12-01)"
   xmlns:inkscape="http://www.inkscape.org/namespaces/inkscape"
   xmlns:sodipodi="http://sodipodi.sourceforge.net/DTD/sodipodi-0.dtd"
   xmlns="http://www.w3.org/2000/svg"
   xmlns:svg="http://www.w3.org/2000/svg">
  <defs
     id="defs156" />
  <sodipodi:namedview
     id="namedview154"
     pagecolor="#ffffff"
     bordercolor="#666666"
     borderopacity="1.0"
     inkscape:showpageshadow="2"
     inkscape:pageopacity="0.0"
     inkscape:pagecheckerboard="true"
     inkscape:deskcolor="#d1d1d1"
     showgrid="false"
     inkscape:zoom="2.0714286"
     inkscape:cx="305.34483"
     inkscape:cy="88.586207"
     inkscape:window-width="2866"
     inkscape:window-height="1379"
     inkscape:window-x="0"
     inkscape:window-y="25"
     inkscape:window-maximized="0"
     inkscape:current-layer="svg152" />
  <path
     d="M0 125.176V48.344H16.688V78.808H50.736V48.344H67.424V125.176H50.736V92.92H16.688V125.176H0Z"
     fill="white"
     id="path132" />
  <path
     d="M117.422 125.176V94.264L87.6295 48.344H107.006L126.046 79.256H126.606L145.534 48.344H163.79L134.222 94.264V125.176H117.422Z"
     fill="white"
     id="path134" />
  <path
     d="M209.124 126.52C204.644 126.52 200.388 126.072 196.356 125.176C192.324 124.28 188.74 122.861 185.604 120.92C182.543 118.904 180.116 116.403 178.324 113.416C176.607 110.355 175.748 106.659 175.748 102.328C175.748 101.955 175.748 101.581 175.748 101.208C175.748 100.76 175.785 100.424 175.86 100.2H192.436C192.361 100.424 192.324 100.723 192.324 101.096C192.324 101.469 192.324 101.805 192.324 102.104C192.324 104.493 192.959 106.509 194.228 108.152C195.572 109.795 197.513 111.027 200.052 111.848C202.591 112.669 205.54 113.08 208.9 113.08C211.065 113.08 212.969 112.968 214.612 112.744C216.329 112.445 217.823 112.072 219.092 111.624C220.436 111.101 221.519 110.504 222.34 109.832C223.236 109.16 223.871 108.376 224.244 107.48C224.692 106.584 224.916 105.576 224.916 104.456C224.916 102.44 224.244 100.797 222.9 99.528C221.631 98.2587 219.839 97.176 217.524 96.28C215.284 95.384 212.745 94.5627 209.908 93.816C207.071 93.0693 204.159 92.3227 201.172 91.576C198.185 90.7547 195.273 89.784 192.436 88.664C189.599 87.4693 187.06 86.0507 184.82 84.408C182.58 82.7653 180.788 80.6747 179.444 78.136C178.1 75.5973 177.428 72.536 177.428 68.952C177.428 65.144 178.212 61.8587 179.78 59.096C181.423 56.3333 183.7 54.056 186.612 52.264C189.524 50.472 192.884 49.1653 196.692 48.344C200.5 47.448 204.644 47 209.124 47C213.305 47 217.263 47.448 220.996 48.344C224.729 49.1653 228.015 50.5093 230.852 52.376C233.689 54.2427 235.892 56.5947 237.46 59.432C239.103 62.2693 239.924 65.6293 239.924 69.512V70.856H223.684V69.96C223.684 67.944 223.087 66.2267 221.892 64.808C220.697 63.3893 219.017 62.2693 216.852 61.448C214.687 60.6267 212.148 60.216 209.236 60.216C206.1 60.216 203.412 60.5147 201.172 61.112C199.007 61.7093 197.327 62.6053 196.132 63.8C195.012 64.92 194.452 66.264 194.452 67.832C194.452 69.624 195.087 71.1173 196.356 72.312C197.7 73.432 199.492 74.44 201.732 75.336C204.047 76.1573 206.623 76.904 209.46 77.576C212.297 78.248 215.209 78.9947 218.196 79.816C221.183 80.6373 224.095 81.608 226.932 82.728C229.769 83.848 232.308 85.2667 234.548 86.984C236.788 88.6267 238.58 90.68 239.924 93.144C241.268 95.608 241.94 98.5573 241.94 101.992C241.94 107.891 240.521 112.632 237.684 116.216C234.847 119.8 230.964 122.413 226.036 124.056C221.108 125.699 215.471 126.52 209.124 126.52Z"
     fill="white"
     id="path136" />
  <path
     d="M300.316 126.52C292.326 126.52 285.494 125.139 279.82 122.376C274.145 119.539 269.814 115.171 266.828 109.272C263.916 103.373 262.46 95.8693 262.46 86.76C262.46 73.32 265.745 63.352 272.316 56.856C278.961 50.2853 288.294 47 300.316 47C306.886 47 312.785 48.12 318.012 50.36C323.238 52.6 327.345 55.96 330.332 60.44C333.393 64.92 334.924 70.5573 334.924 77.352H318.124C318.124 73.768 317.377 70.744 315.884 68.28C314.465 65.816 312.412 63.9493 309.724 62.68C307.11 61.336 304.049 60.664 300.54 60.664C295.761 60.664 291.804 61.5973 288.668 63.464C285.606 65.3307 283.329 68.0933 281.836 71.752C280.417 75.336 279.708 79.7413 279.708 84.968V88.44C279.708 93.816 280.454 98.3333 281.948 101.992C283.441 105.576 285.681 108.301 288.668 110.168C291.729 111.96 295.649 112.856 300.428 112.856C304.161 112.856 307.409 112.221 310.172 110.952C312.934 109.683 315.062 107.816 316.556 105.352C318.049 102.888 318.796 99.864 318.796 96.28H334.924C334.924 103.075 333.43 108.712 330.444 113.192C327.532 117.672 323.462 121.032 318.236 123.272C313.009 125.437 307.036 126.52 300.316 126.52Z"
     fill="white"
     id="path138" />
  <path
     fill-rule="evenodd"
     clip-rule="evenodd"
     d="M380.059 48.344L350.491 125.176H367.739L373.227 110.056H373.229L378.044 96.616H378.043L384.875 77.688C385.248 76.568 385.734 75.1493 386.331 73.432C386.928 71.64 387.525 69.8107 388.123 67.944C388.72 66.0027 389.206 64.3227 389.579 62.904H390.251C390.624 64.024 390.998 65.2933 391.371 66.712C391.819 68.056 392.267 69.4373 392.715 70.856C393.163 72.2747 393.574 73.5813 393.947 74.776C394.395 75.896 394.768 76.8667 395.067 77.688L401.777 96.2792H401.78L406.723 110.077H406.722L412.203 125.176H430.235L400.667 48.344H380.059Z"
     fill="white"
     id="path140" />
  <path
     d="M450.074 125.176V48.344H466.762V110.952H505.514V125.176H450.074Z"
     fill="white"
     id="path142" />
  <path
     fill-rule="evenodd"
     clip-rule="evenodd"
     d="M657.663 48.344V125.176H674.351V97.176H674.364L674.364 83.96H674.351V61.896H697.535C699.85 61.896 701.791 62.3067 703.359 63.128C704.927 63.9493 706.122 65.1813 706.943 66.824C707.764 68.392 708.175 70.296 708.175 72.536C708.175 76.0453 707.242 78.8453 705.375 80.936C703.508 82.952 700.895 83.96 697.535 83.96H681.945V97.176H695.743L709.295 125.176H727.775L712.095 94.376C716.351 92.36 719.599 89.448 721.839 85.64C724.079 81.7573 725.199 77.3147 725.199 72.312C725.199 67.608 724.266 63.464 722.399 59.88C720.532 56.2213 717.695 53.384 713.887 51.368C710.154 49.352 705.45 48.344 699.775 48.344H657.663Z"
     fill="white"
     id="path144" />
  <path
     d="M620.534 79.4308H547.299V94.4421H620.534V79.4308Z"
     fill="#00C2FF"
     id="path146" />
  <path
     d="M644.048 48.367H575.095V63.3783H644.048V48.367Z"
     fill="white"
     id="path148" />
  <path
     d="M592.536 110.466H519.301V125.477H592.536V110.466Z"
     fill="white"
     id="path150" />
</svg>
