<svg width="850" height="435" viewBox="0 0 850 435" fill="none" xmlns="http://www.w3.org/2000/svg">
<path d="M375.904 142.644L372.243 147.531L369.803 149.975L364.924 152.662L364.191 154.862C364.191 154.862 362.238 156.817 362.483 158.04C362.728 159.262 362.728 161.461 362.728 161.461C362.728 161.461 359.312 164.638 357.847 165.615C356.382 166.592 354.43 168.792 354.43 168.792C354.43 168.792 353.21 170.259 352.478 170.747C351.747 171.235 350.527 172.701 349.55 174.168C348.573 175.635 347.597 176.611 347.11 177.344C346.622 178.077 345.157 179.788 344.425 182.476C343.693 185.166 341.741 188.341 341.741 188.341L341.252 189.563C341.497 193.718 341.496 194.451 341.985 195.918C342.473 197.384 342.962 196.894 342.473 200.072C341.985 203.248 341.985 204.47 341.497 205.937C341.009 207.402 339.544 210.09 339.057 211.314C338.568 212.535 340.033 214.734 340.033 214.734C340.033 214.734 340.766 217.912 340.277 218.644C339.789 219.378 340.521 220.844 340.521 220.844C340.521 220.844 343.449 222.554 344.426 223.532C345.402 224.51 347.111 225.976 347.355 226.709C347.6 227.443 349.551 230.864 349.795 231.597C350.039 232.33 351.992 235.017 352.479 235.751C352.967 236.485 355.408 239.174 355.408 239.174C355.408 239.174 358.58 241.615 359.313 242.594C360.045 243.571 362.241 244.059 362.972 244.792C363.705 245.525 365.413 245.28 366.388 246.015C367.365 246.748 369.317 245.525 370.294 246.015C371.269 246.503 373.955 245.526 374.687 245.038C375.418 244.549 377.126 242.839 378.347 243.571C379.566 244.303 380.298 243.571 381.275 243.815C382.25 244.059 383.714 242.839 384.69 242.839C385.667 242.839 388.106 241.861 388.838 241.861C389.571 241.861 392.012 240.393 392.988 240.393C393.963 240.393 395.184 239.418 396.404 239.905C397.623 240.393 397.135 238.929 399.332 239.661C401.529 240.393 402.26 239.661 402.992 240.393C403.725 241.127 404.702 240.395 405.434 241.372C406.166 242.348 407.385 243.081 407.629 244.059C407.872 245.038 409.337 246.016 409.337 246.016L410.801 246.259C410.801 246.259 412.755 244.793 413.242 245.772C413.73 246.749 415.926 246.506 415.926 246.506L418.122 248.949L418.855 249.926C418.855 249.926 420.319 253.836 420.074 255.302C419.83 256.768 419.83 259.945 419.099 260.678C418.367 261.412 417.879 264.589 417.879 264.589C417.879 264.589 416.902 265.566 419.099 267.521C421.295 269.478 422.76 271.187 423.492 272.163C424.225 273.141 426.177 275.83 426.419 277.54C426.664 279.25 427.152 280.228 428.129 282.427C429.104 284.627 430.324 284.871 430.568 287.316C430.813 289.759 431.3 289.76 431.056 291.469C430.812 293.18 430.08 293.425 430.812 294.646C431.544 295.869 432.518 298.068 432.277 298.801C432.033 299.534 431.544 302.711 431.544 302.711L431.056 304.178L428.86 308.334L427.396 310.532C426.908 312.242 425.932 313.953 426.176 316.397C426.419 318.841 424.956 318.84 426.908 321.283C428.86 323.728 429.835 326.416 431.056 328.616C432.277 330.814 433.009 333.014 433.251 334.48C433.496 335.947 434.472 336.436 434.96 338.391C435.447 340.346 435.692 341.322 435.692 342.545C435.692 343.766 435.447 346.944 435.937 347.677C436.424 348.41 436.669 350.611 436.913 351.588C437.157 352.566 436.18 352.81 437.644 354.521C439.109 356.231 440.085 357.209 441.061 358.431C442.036 359.654 441.792 359.164 442.525 360.875C443.257 362.585 444.233 363.564 444.478 365.029C444.722 366.495 444.965 370.16 445.698 371.871C446.429 373.583 447.405 375.294 447.405 375.294C447.405 375.294 450.091 377.004 451.066 376.759C452.041 376.515 453.995 374.318 455.46 375.049C456.924 375.782 458.144 375.049 459.364 375.049C460.583 375.049 461.804 373.583 463.025 373.583C464.245 373.583 465.952 371.627 466.93 372.117C467.906 372.604 469.124 371.626 470.345 370.405C471.566 369.184 472.298 368.207 474.493 366.252C476.69 364.296 476.446 364.295 477.91 363.074C479.374 361.851 480.839 359.163 482.547 358.674C484.254 358.186 484.742 356.477 485.23 355.254C485.719 354.032 485.962 353.299 486.695 352.321C487.427 351.344 486.939 352.568 488.159 349.389C489.38 346.211 490.846 344.991 492.066 344.257C493.285 343.524 494.017 342.058 494.749 341.813C495.481 341.567 496.701 342.546 496.214 340.346C495.727 338.147 496.214 334.97 495.727 334.238C495.238 333.503 494.505 335.947 494.75 332.28C494.996 328.616 497.678 324.949 497.678 324.949C497.678 324.949 501.338 320.306 502.559 319.574C503.78 318.841 504.023 318.108 505.733 317.13C507.439 316.154 511.1 313.71 511.1 312.487C511.1 311.264 512.565 308.088 512.565 307.354C512.565 306.621 512.565 305.888 512.078 301.733C511.589 297.58 512.565 298.556 511.101 294.646C509.638 290.736 509.392 285.848 508.417 284.627C507.44 283.404 507.928 280.226 507.928 279.25C507.928 278.273 509.638 275.829 510.37 274.852C511.101 273.874 514.274 269.963 514.274 269.963C514.274 269.963 519.154 264.343 520.862 261.656C522.571 258.967 524.278 256.524 525.498 255.547C526.719 254.569 529.647 252.367 531.355 249.925C533.064 247.482 536.48 242.839 536.725 242.104C536.968 241.372 538.919 238.928 538.919 238.928C538.919 238.928 541.604 235.75 542.093 234.04C542.579 232.329 545.019 222.798 544.531 223.287C544.045 223.777 541.116 224.264 540.139 224.509C539.164 224.754 541.605 225.73 534.526 225.242C527.451 224.753 523.791 225.975 523.791 225.975C521.593 225.486 519.885 227.93 519.152 224.509C518.421 221.088 517.932 219.133 516.469 216.689C515.004 214.245 514.028 213.268 511.833 210.09C509.638 206.914 509.88 208.379 507.927 205.937C505.975 203.493 505.487 204.225 504.267 201.049C503.047 197.872 502.071 199.095 500.607 194.695C499.142 190.295 498.166 189.806 497.434 187.363C496.701 184.92 495.727 184.185 495.238 181.987C494.75 179.787 489.138 168.546 488.405 167.812C487.672 167.081 486.453 163.169 486.697 163.903C486.942 164.635 490.358 167.079 490.358 167.079C490.358 167.079 492.309 166.346 493.042 166.346C493.774 166.346 496.703 169.035 496.703 170.011C496.703 170.989 501.83 175.633 503.048 179.054C504.268 182.475 505.735 184.919 505.977 185.896C506.218 186.874 508.661 190.784 509.638 192.251C510.612 193.718 513.785 196.65 514.273 198.116C514.761 199.583 519.399 204.47 519.399 207.647C519.399 210.824 521.593 214.978 521.838 215.955C522.083 216.932 526.474 218.156 526.474 218.156L532.332 216.689C532.332 216.689 541.116 211.067 542.093 211.067C543.067 211.067 550.879 207.402 550.879 207.402C550.879 207.402 554.05 204.47 556.245 202.76C558.442 201.049 560.882 197.873 561.371 196.405C561.858 194.938 562.835 194.695 564.786 192.494C566.739 190.295 569.423 188.096 567.716 186.629C566.007 185.164 565.03 185.652 562.591 183.208C560.15 180.765 560.394 181.254 558.686 178.076C556.977 174.9 558.93 171.234 555.268 174.9C551.609 178.566 553.073 179.543 549.412 180.278C545.753 181.01 544.287 183.454 542.579 181.01C540.872 178.566 539.164 180.032 538.186 176.366C537.21 172.7 536.478 172.455 536.235 170.99C535.992 169.523 536.235 169.523 534.282 165.857C532.331 162.191 533.794 156.571 535.014 159.747C536.235 162.924 538.186 163.413 541.36 165.613C544.531 167.811 545.997 169.523 548.924 169.768C551.852 170.011 554.293 169.768 554.781 170.255C555.268 170.745 555.756 170.012 556.977 170.5C558.198 170.989 558.684 169.768 559.173 171.721C559.66 173.676 562.345 173.921 563.564 175.142C564.785 176.364 564.785 175.876 567.959 176.364C571.132 176.853 575.525 176.853 575.525 176.853L580.16 176.608L585.529 177.095C585.529 177.095 589.435 179.295 590.41 179.295C591.385 179.295 591.629 181.984 594.07 183.45C596.51 184.917 596.998 185.16 598.462 186.871C599.929 188.583 599.683 189.315 601.634 191.025C603.588 192.738 606.761 190.782 607.249 190.05C607.735 189.316 610.175 188.095 609.69 190.05C609.201 192.005 612.128 191.271 611.396 195.916C610.664 200.557 610.175 199.336 611.396 202.514C612.616 205.691 617.985 215.465 618.23 218.398C618.475 221.331 619.937 220.353 620.181 223.043C620.426 225.73 621.889 226.707 621.889 228.663C621.889 230.618 623.598 231.105 623.841 232.573C624.087 234.04 626.771 232.817 627.502 232.573C628.235 232.328 631.651 229.151 631.651 229.151C631.651 229.151 633.117 228.664 632.871 226.219C632.626 223.777 632.871 224.264 632.871 220.599C632.871 216.933 631.408 216.933 632.14 213.269C632.871 209.604 634.823 207.403 635.312 205.693C635.8 203.983 637.752 201.05 638.727 200.805C639.703 200.56 645.073 197.873 646.293 196.161C647.513 194.451 649.466 192.496 651.418 190.541C653.37 188.587 656.786 186.143 657.519 186.876C658.251 187.609 658.007 187.364 659.228 187.364C660.447 187.364 662.644 188.343 664.351 188.587C666.06 188.831 669.477 192.985 670.209 195.185C670.941 197.385 670.453 196.895 673.138 200.073C675.822 203.249 678.262 201.293 678.262 205.204C678.262 209.115 678.262 208.87 679.483 210.336C680.703 211.803 682.166 207.648 683.63 208.138C685.094 208.627 685.338 207.649 686.557 211.559C687.777 215.47 688.509 215.47 688.755 219.38C688.998 223.289 688.51 219.624 688.51 222.8C688.51 225.978 688.265 226.222 688.755 229.153C689.242 232.088 690.948 233.065 690.706 233.554C690.706 233.554 692.17 229.4 691.681 226.466C691.195 223.535 691.681 219.381 692.902 218.159C694.122 216.936 695.344 215.715 696.318 218.892C697.295 222.068 697.783 219.625 699.978 223.29C702.176 226.957 704.127 226.222 704.371 227.933C704.615 229.644 705.838 229.889 707.544 231.354C709.252 232.821 710.716 231.111 712.669 229.644C714.622 228.177 719.989 222.801 720.235 220.601C720.478 218.402 722.674 218.89 718.769 213.271C714.864 207.65 714.864 205.695 710.716 202.274C706.57 198.853 704.129 198.608 707.302 194.209C710.474 189.809 711.939 186.878 713.89 188.1C715.843 189.322 719.257 189.077 719.257 193.966C719.257 198.853 718.281 204.229 721.698 198.364C725.114 192.499 726.823 189.078 725.846 190.057C724.871 191.034 728.042 188.102 728.042 188.102C728.042 188.102 728.287 185.902 732.436 184.925C736.583 183.945 737.803 183.458 739.269 182.725C740.732 181.991 744.882 177.103 745.613 174.904C746.345 172.705 748.298 168.795 747.81 167.085C747.322 165.373 744.88 157.066 744.392 157.309C743.906 157.554 744.15 157.554 740.978 154.133C737.804 150.712 735.609 148.268 735.121 146.801C734.633 145.334 733.412 145.09 734.876 143.136C736.341 141.181 737.073 141.426 737.317 139.715C737.56 138.005 739.512 136.538 735.851 137.76C732.192 138.982 734.876 138.25 731.703 138.006C728.531 137.76 720.235 139.716 724.384 134.584C728.531 129.452 729.75 126.276 730.483 126.276C731.217 126.276 734.877 122.121 735.12 126.031C735.365 129.941 736.827 128.962 737.072 131.406C737.317 133.85 742.197 128.719 742.197 128.719C742.197 128.719 743.905 129.208 745.124 130.429C746.345 131.651 746.345 135.562 746.345 135.562C746.345 135.562 745.369 134.339 748.054 136.294C750.739 138.251 753.665 137.272 753.665 141.427C753.665 145.581 753.665 145.826 755.374 146.803C757.084 147.78 758.789 147.293 760.256 146.07C761.72 144.849 764.159 140.45 764.159 140.45C764.159 140.45 764.403 138.738 760.499 136.294C756.595 133.852 754.154 132.142 752.692 130.919C751.226 129.698 751.715 126.032 753.178 124.564C754.644 123.097 755.374 122.364 754.886 120.41C754.397 118.454 755.619 116.988 759.279 117.232C762.939 117.478 763.671 116.989 763.671 116.989C763.671 116.989 764.405 117.476 764.405 116.011C764.405 114.545 769.04 107.702 767.819 107.702C766.6 107.702 768.066 105.992 767.331 103.303C766.6 100.614 769.772 96.4609 767.089 94.5055C764.404 92.5501 763.671 91.5718 761.964 88.6403C760.256 85.7066 760.498 85.2191 754.154 84.4852C747.81 83.7523 744.882 85.952 743.417 83.9977C741.952 82.0423 741.221 86.9292 740.246 81.064C739.27 75.1989 741.71 71.288 741.71 71.288C741.71 71.288 745.614 68.8451 746.589 67.134C747.565 65.4229 751.469 64.69 754.645 65.9125C757.817 67.134 762.452 66.8897 766.358 67.6248C770.262 68.3565 770.018 70.8005 771.971 67.6248C773.922 64.4457 771.971 62.981 773.434 61.2699C774.9 59.5588 776.607 56.8705 777.826 58.5806C779.046 60.2928 781.49 62.0017 783.442 59.802C785.394 57.6034 786.126 57.3591 786.126 57.3591L787.099 58.3373C787.099 58.3373 789.296 57.1137 789.296 59.3123C789.296 61.5131 791.493 63.9571 790.273 65.6672C789.051 67.3794 787.345 67.134 787.345 71.288C787.345 75.4442 787.345 74.7103 790.028 78.1325C792.713 81.5526 794.421 78.62 794.908 82.2866C795.397 85.952 795.883 85.2202 798.57 87.6631C801.254 90.106 800.764 90.1061 802.718 91.5729C804.67 93.0397 805.647 94.5066 805.647 92.0626C805.647 89.6186 805.891 88.3971 805.647 86.1974C805.401 83.9988 807.6 82.2866 806.133 78.6211C804.669 74.9557 805.89 75.2 802.962 72.5117C800.032 69.8245 798.08 73.0013 797.106 69.0905C796.129 65.1808 801.741 63.4696 803.207 62.981C804.67 62.4936 806.865 59.5599 807.353 61.5153C807.842 63.4696 803.694 70.5573 810.771 62.981C817.846 55.4058 814.675 58.5827 814.675 58.5827C814.675 58.5827 818.335 58.0941 819.067 58.5827C819.798 59.0724 821.754 56.383 821.019 56.6284C820.287 56.8738 813.213 52.7176 813.213 52.7176L808.086 49.7861C808.086 49.7861 809.795 48.5635 811.015 48.8089C812.236 49.0532 812.481 46.3649 813.702 46.1195C814.921 45.8752 823.217 47.8317 824.927 48.8089C826.635 49.7861 832.734 50.0304 832.001 49.5418C831.269 49.0521 827.366 46.1206 827.121 45.1424C826.879 44.1652 818.336 42.2098 815.653 42.4541C812.967 42.6973 810.529 43.4302 808.333 42.6973C806.135 41.9644 802.964 40.009 801.255 40.009C799.548 40.009 778.073 35.855 777.098 36.0993C776.122 36.3435 774.656 40.9862 773.924 40.2533C773.192 39.5204 771.973 39.5193 768.554 38.5422C765.14 37.565 760.502 36.831 754.401 36.3435C748.301 35.855 744.154 36.8321 742.445 34.8767C740.737 32.9224 737.078 33.6553 732.928 33.4099C728.78 33.1667 723.9 33.4099 721.703 33.4099C719.506 33.4099 714.384 33.1667 713.163 32.9213C711.942 32.6759 710.479 30.9659 709.015 30.7227C707.549 30.4773 707.793 29.9898 704.866 29.5012C701.937 29.0116 702.181 25.8358 701.206 28.523C700.23 31.2123 700.717 30.4784 699.253 31.4555C697.788 32.4338 696.325 34.3881 695.348 34.3881C694.373 34.3881 690.469 34.6324 689.735 34.1438C689.002 33.6553 687.782 33.1667 685.342 33.1667C682.902 33.1667 682.902 33.4099 679.729 32.9213C676.557 32.4327 674.116 32.6759 671.188 31.2113C668.26 29.7444 668.26 28.7673 665.819 29.0116C663.381 29.2569 663.381 28.523 659.963 28.523C656.547 28.523 652.399 30.4784 650.202 30.7227C648.007 30.967 643.126 30.4773 641.418 29.7444C639.708 29.0116 639.221 27.3015 632.876 28.0333C626.531 28.7673 622.871 28.7673 624.091 26.8118C625.311 24.8575 626.775 22.9021 627.507 22.6578C628.24 22.4135 629.946 21.1921 628.725 20.7035C627.507 20.2138 626.286 19.482 623.359 19.2366C620.429 18.9924 620.672 20.2138 616.281 19.7252C611.889 19.2366 618.722 18.0152 609.694 18.2595C600.665 18.5049 598.468 19.2366 597.493 19.2366C596.516 19.2366 595.295 17.2823 592.856 20.2138C590.415 23.1464 586.997 24.8564 582.118 25.1007C577.238 25.3461 576.993 24.6121 572.358 26.3222C567.721 28.0322 564.792 25.8336 565.769 29.7433C566.743 33.6531 567.965 35.1199 567.965 35.8528C567.965 36.5857 565.769 41.4737 563.085 38.5411C560.399 35.6085 555.519 24.1225 557.715 31.943C559.911 39.7625 564.791 42.4519 560.156 43.6734C555.52 44.8948 556.006 43.1848 555.274 42.6951C554.543 42.2065 555.274 38.7854 555.03 36.83C554.785 34.8756 554.298 33.6531 553.322 32.6759C552.348 31.6977 552.589 30.2319 550.638 29.7433C548.685 29.2548 550.394 28.2765 547.222 28.2765C544.049 28.2765 541.366 26.3211 542.098 30.7205C542.829 35.1188 543.56 32.1873 545.512 36.3414C547.463 40.4954 551.125 37.5628 548.441 40.4954C545.757 43.428 538.681 42.4508 536.972 41.2294C535.263 40.0068 535.752 41.7179 532.578 39.5182C529.406 37.3185 530.383 35.6074 526.723 37.3185C523.063 39.0297 521.842 42.2065 520.378 40.984C518.913 39.7614 515.498 42.694 514.277 41.2294C513.056 39.7625 508.175 39.7625 507.201 41.2294C506.224 42.6951 503.295 42.4508 499.147 44.4062C494.999 46.3606 496.218 44.6494 491.094 48.8046C485.968 52.9586 483.04 56.3798 481.333 53.6915C479.625 51.0043 470.351 46.3606 474.012 45.6266C477.673 44.8937 479.381 43.428 481.333 45.138C483.286 46.8481 486.459 46.3606 486.945 45.138C487.433 43.9155 489.631 42.694 486.701 41.2283C483.773 39.7614 483.529 40.7386 478.893 39.0286C474.256 37.3174 478.893 37.8071 472.547 36.8289C466.203 35.8517 463.517 35.3631 461.81 34.8745C460.103 34.386 457.662 34.8745 455.222 34.6302C452.781 34.386 451.074 33.8974 448.876 34.1417C446.681 34.386 445.461 33.8974 442.532 36.0971C439.602 38.2968 437.406 39.274 435.454 40.984C433.503 42.694 428.379 46.1163 426.914 47.3388C425.45 48.5603 420.325 52.47 419.837 53.9369C419.349 55.4037 420.325 56.6251 418.372 57.6023C416.42 58.5795 414.468 58.5795 413.003 58.8238C411.539 59.0681 413.003 56.6241 411.539 59.068C410.075 61.512 410.563 70.3098 411.783 69.0872C413.002 67.8647 412.27 63.956 417.639 67.6226C423.008 71.2869 426.425 70.7984 426.18 74.2195C425.936 77.6407 429.841 77.3964 430.328 78.1304C430.816 78.8621 433.257 77.1521 433.257 77.1521C433.257 77.1521 438.626 73.7309 438.626 72.0209C438.626 70.3098 442.042 66.4 442.042 66.4C442.042 66.4 439.6 65.1786 439.6 62.7346C439.6 60.2917 440.334 59.5566 440.821 57.1126C441.309 54.6697 438.137 57.1137 445.458 52.4689C452.777 47.8263 453.266 51.0043 453.266 51.0043C453.266 51.0043 454.241 51.9814 453.021 53.4472C451.802 54.914 449.605 58.8248 449.117 59.3123C448.628 59.802 451.314 63.7118 452.532 63.7118C453.753 63.7118 456.194 62.7335 457.658 62.9778C459.123 63.2232 461.562 62.246 462.294 62.7346C463.027 63.2232 464.735 64.6889 463.514 65.9115C462.294 67.1329 459.609 68.5987 457.658 68.1112C455.705 67.6237 452.776 64.2003 454.485 69.0883C456.194 73.9763 454.241 75.1978 452.776 74.9535C451.314 74.7092 448.14 72.2663 448.628 75.9317C449.117 79.5961 445.457 82.0401 444.724 82.0401C443.991 82.0401 442.529 81.7958 442.529 81.7958C442.529 81.7958 440.331 81.5504 439.112 81.5504C437.892 81.5504 435.451 82.7719 434.719 83.7501C433.986 84.7273 433.011 83.9955 431.791 83.9955C430.571 83.9955 431.791 82.5287 429.351 82.0401C426.911 81.5515 425.446 81.0629 423.983 82.0401C422.518 83.0173 420.323 83.5058 419.346 82.773C418.37 82.0401 419.835 80.3279 417.881 81.3072C415.93 82.2844 414.465 84.9727 413.733 85.2181C413.001 85.4613 415.93 85.2181 413.001 85.4613C410.073 85.7066 408.853 86.4406 407.388 86.9281C405.924 87.4178 407.876 90.3493 405.192 91.3264C402.508 92.3036 404.461 90.105 401.776 92.3036C399.091 94.5044 398.602 96.4587 397.628 96.703C396.651 96.9484 396.896 97.4359 394.699 97.6802C392.503 97.9245 392.748 98.1687 391.526 98.413C390.306 98.6573 391.771 99.147 389.087 98.6573C386.401 98.1687 384.45 99.147 384.937 100.124C385.425 101.101 394.454 103.79 387.622 103.545C380.789 103.301 382.986 104.522 384.45 105.5C385.914 106.477 386.645 107.454 387.378 107.699C388.111 107.944 389.329 110.877 389.329 110.877C389.329 110.877 391.282 110.632 390.062 112.343C388.843 114.054 390.55 114.543 389.329 116.742C388.11 118.942 388.11 117.475 387.134 117.964C386.158 118.451 384.693 120.164 382.008 118.697C379.324 117.23 377.373 116.497 374.2 116.254C371.027 116.009 373.223 115.521 371.027 117.23C368.831 118.942 368.343 120.897 368.588 123.095C368.832 125.294 369.076 128.227 368.343 129.694C367.611 131.16 367.611 132.627 368.098 134.827C368.587 137.025 370.052 138.004 370.052 138.004C370.052 138.004 373.468 138.492 374.2 138.737C374.932 138.982 376.396 138.249 378.348 139.469C380.3 140.692 382.253 141.181 383.473 139.715C384.692 138.249 389.573 136.538 391.039 135.072C392.503 133.605 393.479 133.118 392.747 131.651C392.015 130.184 394.211 126.518 395.431 125.786C396.651 125.053 399.335 124.319 399.335 124.319L402.264 119.92C402.264 119.92 404.704 117.231 405.924 117.476C407.143 117.721 413.976 120.166 413.489 116.989C413.001 113.811 413.977 112.834 414.709 114.055C415.441 115.277 417.393 114.788 417.393 114.788C417.393 114.788 418.369 114.301 419.101 115.034C419.833 115.765 420.808 118.944 422.273 119.676C423.738 120.41 424.957 121.143 425.934 121.63C426.91 122.12 427.887 121.63 429.839 123.342C431.791 125.053 433.744 126.031 433.986 126.763C434.233 127.496 435.94 129.207 435.94 129.207C435.94 129.207 437.648 129.695 437.16 130.674C436.672 131.651 434.233 134.584 433.012 135.072C431.791 135.56 428.62 134.582 429.839 135.561C431.058 136.538 432.768 137.76 433.5 137.026C434.233 136.293 438.867 131.405 438.867 131.405C438.867 131.405 438.623 131.65 438.867 130.183C439.112 128.718 438.867 127.007 440.088 127.74C441.308 128.474 442.041 129.451 442.529 128.474C443.017 127.496 443.504 127.985 442.284 127.252C441.063 126.518 438.136 122.364 436.671 122.12C435.206 121.875 431.545 119.431 431.545 119.431C431.545 119.431 430.814 118.698 429.105 116.744C427.397 114.788 426.91 115.277 426.42 113.566C425.933 111.856 424.467 109.656 427.153 110.144C429.838 110.633 431.545 112.343 433.985 113.81C436.426 115.277 435.939 115.764 438.134 117.231C440.33 118.698 440.576 120.165 442.283 119.92C443.99 119.676 445.944 120.898 445.944 123.097C445.944 125.297 446.431 127.74 446.918 128.23C447.407 128.719 448.87 129.696 449.359 130.674C449.847 131.651 450.824 134.095 451.554 135.072C452.287 136.049 453.019 136.783 453.751 138.006C454.483 139.227 454.727 137.76 455.458 138.25C456.191 138.738 457.167 138.493 457.167 137.516C457.167 136.539 457.41 134.828 457.41 134.828C457.41 134.828 460.828 133.85 459.853 133.361C458.876 132.872 455.946 129.94 456.191 128.962C456.435 127.985 456.191 126.031 457.41 126.275C458.631 126.518 459.852 128.718 462.536 126.763C465.22 124.807 468.393 123.83 467.416 126.763C466.441 129.695 467.662 130.183 467.416 133.361C467.173 136.539 468.394 135.56 470.102 137.272C471.81 138.983 473.03 139.228 474.249 139.716C475.47 140.205 477.422 139.961 479.375 140.205C481.328 140.45 482.548 139.471 484.256 139.961C485.963 140.45 489.868 139.716 490.601 140.205C491.334 140.694 494.262 139.228 494.505 140.938C494.749 142.649 495.726 140.694 494.994 144.604C494.262 148.513 493.285 151.202 493.285 151.202C490.601 156.334 489.625 157.556 488.404 157.801C487.186 158.045 486.453 158.778 484.257 158.534C482.061 158.288 479.376 158.534 476.204 157.801C473.032 157.067 467.174 158.534 464.735 157.067C462.294 155.601 458.878 156.823 457.412 155.112C455.949 153.401 453.509 153.646 452.532 152.668C451.557 151.691 451.069 149.004 451.069 152.914C451.069 156.825 448.872 157.068 448.384 159.023C447.895 160.978 449.115 160 446.431 159.756C443.746 159.511 443.014 160.978 439.11 158.046C435.205 155.114 433.254 155.114 431.302 153.891C429.348 152.668 427.397 156.09 425.445 152.181C423.493 148.27 420.808 151.447 420.564 148.27C420.32 145.092 420.564 145.339 420.808 143.383C421.054 141.428 423.737 139.718 422.517 138.985C421.296 138.252 422.272 137.03 420.564 137.763C418.856 138.496 416.416 138.741 414.464 139.474C412.511 140.207 418.856 139.473 409.339 140.207C399.822 140.94 397.137 141.917 397.137 141.917C397.137 141.917 396.405 141.429 395.184 142.406C393.964 143.383 392.256 144.85 390.548 144.117C388.84 143.383 387.864 143.628 386.4 143.873C384.935 144.117 383.961 142.651 382.252 143.873C380.543 145.093 378.592 145.583 377.859 145.093C377.1 144.594 375.875 142.64 375.875 142.64L375.904 142.644Z" fill="#2C8EBA"/>
<path d="M539.159 303.442C538.427 306.131 535.743 310.04 535.743 310.04L530.861 312.484C530.861 312.484 529.155 313.951 528.177 314.195C527.201 314.438 524.761 315.662 524.761 315.662C524.761 315.662 522.566 315.172 523.296 317.371C524.028 319.571 524.273 322.26 524.028 322.992C523.785 323.726 523.785 325.193 523.785 327.148C523.785 329.102 523.053 331.545 521.833 332.034C520.613 332.523 519.392 333.012 519.636 334.723C519.881 336.434 519.881 341.565 519.881 341.565L523.055 346.453C523.055 346.453 524.03 345.721 525.983 345.721C527.933 345.721 529.887 344.012 529.887 344.012C529.887 344.012 532.085 344.498 531.838 341.812C531.595 339.123 532.816 335.947 532.57 335.213C532.327 334.48 534.768 331.302 534.768 330.57C534.768 329.836 537.208 326.417 537.208 325.194C537.208 323.972 538.916 322.017 539.16 320.552C539.404 319.084 539.648 315.664 540.136 314.687C540.625 313.71 540.869 312.732 540.869 311.754C540.869 310.777 540.869 308.822 540.869 308.822L539.134 303.437L539.159 303.442Z" fill="#2C8EBA"/>
<path d="M730.233 336.437C729.501 337.413 729.014 347.923 728.526 349.145C728.038 350.366 727.061 356.721 727.551 358.186C728.038 359.654 728.77 365.029 728.283 366.74C727.794 368.45 728.527 373.827 727.305 373.583C726.086 373.337 725.599 373.828 725.599 374.56C725.599 375.294 727.305 376.758 727.305 376.758C727.305 376.758 730.235 376.76 731.455 376.514C732.675 376.27 735.115 375.047 737.068 375.047C739.02 375.047 740.241 373.58 741.948 373.58C743.656 373.58 747.318 372.36 748.293 372.848C749.269 373.335 750.733 369.915 752.441 370.649C754.15 371.382 757.811 368.938 759.519 368.938C761.225 368.938 761.959 366.248 763.912 366.739C765.863 367.228 769.525 365.762 771.233 366.493C772.939 367.228 775.625 364.05 776.845 366.493C778.066 368.938 781.727 369.915 781.727 371.136C781.727 372.358 781.48 375.047 781.48 375.047L784.409 374.802C784.409 374.802 789.044 371.869 789.778 371.869C790.51 371.869 792.219 369.426 792.219 370.649C792.219 371.869 790.753 374.56 790.266 375.78C789.778 377.003 790.753 378.47 790.753 378.47C790.753 378.47 793.195 379.691 792.219 381.89C791.242 384.089 792.461 383.602 792.219 385.311C791.974 387.022 792.219 386.288 793.192 387.265C794.17 388.243 795.88 389.957 797.342 389.71C798.808 389.465 799.294 388 800.515 388.733C801.734 389.466 804.174 388.977 804.906 389.956C805.641 390.932 800.271 393.376 809.544 389.223C818.817 385.066 819.79 384.089 821.011 382.622C822.235 381.157 823.699 379.691 824.672 378.713C825.649 377.736 824.918 377.98 827.845 375.78C830.773 373.582 830.773 374.559 833.459 370.404C836.144 366.251 838.094 364.784 838.584 364.05C839.072 363.316 840.048 363.073 840.292 360.138C840.536 357.206 842.487 354.518 842.487 353.541C842.487 352.565 843.219 351.099 842.975 349.387C842.731 347.676 843.952 345.234 842.487 342.79C841.023 340.345 843.219 339.37 841.023 338.39C838.826 337.412 837.362 337.902 836.875 336.191C836.386 334.48 834.433 334.724 833.701 330.081C832.969 325.439 830.041 324.948 830.041 324.948C830.041 324.948 827.113 323.727 827.845 323.239C828.578 322.749 828.821 319.327 828.578 318.35C828.333 317.373 828.333 315.173 827.603 313.709C826.871 312.241 826.382 310.287 825.65 308.575C824.918 306.865 823.699 306.375 823.21 304.421C822.721 302.467 821.989 301.732 821.746 301.244C821.5 300.756 821.011 298.313 820.525 300.999C820.037 303.687 819.059 308.818 819.059 308.818C819.059 308.818 817.107 312.975 816.375 314.196C815.643 315.416 814.911 318.594 813.692 318.349C812.471 318.105 811.737 319.573 810.763 319.326C809.787 319.081 808.323 319.572 807.591 318.839C806.859 318.105 804.907 316.15 803.93 315.905C802.954 315.662 802.222 313.707 801.489 313.707C800.755 313.707 799.537 311.995 799.782 311.018C800.025 310.041 800.269 307.842 800.514 306.864C800.756 305.887 802.222 303.686 802.222 303.686C802.222 303.686 802.222 302.22 801.002 302.22C799.782 302.22 799.537 302.22 796.852 301.975C794.169 301.73 793.438 301.486 792.459 301.486C791.486 301.486 793.437 300.998 790.752 301.731C788.068 302.466 786.848 304.42 785.139 306.131C783.434 307.841 784.896 307.352 783.434 307.841C781.967 308.331 782.213 306.619 781.236 309.308C780.259 311.996 781.725 312.728 780.99 313.218C780.258 313.707 775.135 311.508 775.135 311.508C775.135 311.508 776.355 311.262 775.378 310.041C774.403 308.818 773.427 307.109 771.964 307.842C770.497 308.575 769.276 309.065 768.303 310.286C767.326 311.508 767.326 312.485 766.594 313.462C765.862 314.439 763.911 314.439 763.666 315.417C763.422 316.396 763.422 318.839 762.691 319.083C761.959 319.328 761.715 318.108 760.984 317.863C760.252 317.618 760.495 315.663 760.008 316.885C759.52 318.107 759.032 317.861 758.3 319.817C757.566 321.772 757.323 323.483 756.592 323.728C755.86 323.973 756.592 324.216 754.394 325.439C752.2 326.66 751.711 326.66 748.539 328.127C745.368 329.594 746.1 329.594 743.904 329.837C741.708 330.083 741.218 330.815 739.754 331.06C738.289 331.304 737.315 331.547 735.849 333.014C734.386 334.481 733.166 334.968 732.19 335.214C731.214 335.459 730.282 336.419 730.282 336.419L730.233 336.437Z" fill="#2C8EBA"/>
<path d="M744.631 239.905C743.656 241.373 740.484 245.77 739.264 246.015C738.044 246.258 736.823 247.482 735.847 247.237C734.871 246.991 732.675 247.237 731.943 250.414C731.211 253.59 729.99 255.301 729.256 255.056C728.525 254.812 730.476 259.699 726.329 257.745C722.182 255.79 723.646 259.457 723.157 260.435C722.669 261.411 723.889 264.1 724.133 265.077C724.379 266.055 725.108 267.766 726.085 269.23C727.061 270.697 727.793 272.407 729.501 271.921C731.21 271.43 736.577 271.921 736.577 271.921C736.577 271.921 738.531 272.654 739.75 272.654C740.97 272.654 741.215 272.165 741.946 272.165C742.676 272.165 744.141 269.72 743.898 269.477C743.654 269.23 742.923 268.499 744.386 267.032C745.851 265.565 747.558 265.077 747.803 263.366C748.047 261.656 747.315 261.656 748.047 260.677C748.779 259.7 750.487 259.946 750 258.967C749.511 257.99 750.487 258.234 749.511 256.278C748.536 254.323 747.314 253.589 748.29 251.145C749.267 248.702 750.245 248.213 750 246.747C749.755 245.279 751.22 244.792 749.511 243.08C747.804 241.371 747.071 240.882 745.851 240.391L744.647 239.892L744.631 239.905Z" fill="#2C8EBA"/>
<path d="M792.465 264.344C793.443 264.1 796.858 261.656 797.103 266.056C797.347 270.454 797.589 269.231 799.055 271.675C800.519 274.119 801.493 274.854 803.201 273.632C804.909 272.408 806.861 272.408 807.349 270.211C807.838 268.011 807.838 268.011 809.302 268.011C810.769 268.011 811.255 267.767 811.99 268.746C812.72 269.721 813.206 268.744 816.381 270.455C819.553 272.166 822.236 271.675 824.191 273.388C826.143 275.098 827.119 274.855 829.803 275.832C832.487 276.809 831.266 275.343 833.707 278.031C836.148 280.718 835.174 281.451 836.391 282.674C837.611 283.895 838.589 281.696 838.1 284.628C837.611 287.561 834.196 284.628 839.321 288.781C844.444 292.937 845.177 293.671 846.884 294.892C848.593 296.114 849.813 297.581 848.351 297.581C846.884 297.581 842.249 297.581 841.762 296.847C841.273 296.114 839.078 295.625 837.612 293.914C836.149 292.206 832.977 290.982 832.246 289.516C831.512 288.048 830.537 287.561 829.317 287.561C828.097 287.561 826.877 289.026 825.168 290.738C823.459 292.448 824.194 289.762 821.995 290.493C819.798 291.227 817.361 290.248 816.139 289.271C814.918 288.294 815.164 286.828 813.213 287.561C811.258 288.294 810.04 287.805 810.772 286.339C811.504 284.871 811.015 282.917 811.015 282.917C811.015 282.917 811.749 280.473 810.041 279.986C808.333 279.498 808.333 277.787 806.624 277.296C804.914 276.809 802.232 275.586 802.232 275.586C802.232 275.586 801.988 275.586 801.255 275.342C800.523 275.096 800.523 275.096 798.571 274.609C796.619 274.119 795.154 274.607 794.179 273.386C793.201 272.165 793.69 270.454 793.69 270.454C793.69 270.454 797.594 270.942 793.69 268.01L789.786 265.078C789.786 265.078 790.271 264.833 790.029 264.344C789.779 263.845 792.468 264.334 792.468 264.334L792.465 264.344Z" fill="#2C8EBA"/>
<path d="M682.649 244.052C682.649 244.052 683.869 245.276 685.821 245.03C687.773 244.785 689.235 248.94 690.458 250.406C691.677 251.873 692.411 252.606 695.094 254.317C697.778 256.027 697.534 252.85 701.195 257.982C704.855 263.113 703.146 259.938 704.855 263.113C706.563 266.294 707.539 268.003 708.515 268.738C709.49 269.47 710.224 271.424 710.469 272.158C710.712 272.891 712.419 275.089 712.419 275.823C712.419 276.556 712.908 278.511 711.445 280.221C709.98 281.933 708.759 282.177 708.759 282.177C708.759 282.177 705.831 280.71 704.855 279.244C703.878 277.779 702.66 276.556 700.95 273.625C699.242 270.691 697.29 267.514 696.314 266.048C695.338 264.58 693.873 263.113 693.142 261.649C692.41 260.181 690.457 255.784 689.481 255.294C688.506 254.804 688.261 253.34 686.552 251.629C684.845 249.917 685.088 248.452 684.357 247.475C683.625 246.497 681.917 244.295 681.917 244.295L682.633 244.057L682.649 244.052Z" fill="#2C8EBA"/>
<path d="M208.02 434.675C206.311 433.698 202.651 431.987 201.432 431.01C200.212 430.033 196.552 424.654 196.552 424.654L193.866 419.522C193.866 419.522 190.695 415.612 191.427 414.146C192.159 412.679 193.623 411.702 193.623 410.969C193.623 410.236 195.087 408.28 193.866 407.548C192.646 406.814 192.646 406.571 191.914 404.371C191.182 402.173 191.182 400.215 190.206 399.727C189.229 399.24 188.497 396.062 187.522 395.818C186.546 395.572 185.569 393.862 185.569 393.862L184.104 374.067C184.104 374.067 183.615 365.026 183.129 363.07C182.64 361.115 183.86 356.961 182.64 353.295C181.42 349.629 182.885 345.231 182.152 343.764C181.42 342.297 182.64 338.144 181.908 334.235C181.176 330.325 184.836 325.437 181.908 323.971C178.979 322.503 181.176 320.305 178.735 320.305C176.296 320.305 174.587 319.082 172.391 317.373C170.194 315.662 166.045 312.484 164.826 311.262C163.606 310.041 159.701 306.863 158.481 305.886C157.261 304.909 156.041 300.754 155.065 299.531C154.089 298.311 153.601 294.645 152.136 292.446C150.672 290.247 148.72 286.582 148.231 285.848C147.743 285.115 142.375 278.761 142.375 278.761L142.862 274.851C142.862 274.851 146.523 272.652 146.035 271.919C145.547 271.185 146.28 270.451 144.57 268.986C142.861 267.518 143.105 264.83 144.57 263.61C146.035 262.386 148.23 258.476 148.23 258.476L151.89 252.368C151.89 252.368 154.82 249.189 154.82 246.99C154.82 244.792 158.968 243.326 156.527 241.37C154.087 239.414 155.308 237.704 154.575 236.237C153.842 234.771 154.331 233.794 156.527 232.327C158.724 230.86 162.628 225.485 162.628 225.485C162.628 225.485 165.556 224.751 166.288 224.751C167.02 224.751 168.241 216.929 170.437 222.062C172.634 227.194 173.366 224.506 172.634 228.171C171.901 231.836 173.61 231.105 174.585 230.128C175.561 229.148 174.096 230.86 176.049 226.46C178 222.062 177.27 220.596 178.489 221.818C179.709 223.041 180.197 223.285 182.393 224.018C184.589 224.751 185.322 224.506 186.053 225.972C186.784 227.439 186.542 225.484 190.69 226.218C194.838 226.952 200.694 224.751 199.962 227.194C199.231 229.638 197.766 226.95 201.182 229.638C204.598 232.327 205.087 232.815 207.039 233.304C208.99 233.793 210.699 233.549 213.628 236.481C216.557 239.413 217.289 239.658 218.02 241.123C218.752 242.591 219.972 241.612 221.193 243.078C222.412 244.546 224.121 244.546 225.829 244.546C227.536 244.546 225.829 243.078 228.513 245.035C231.199 246.989 233.15 247.232 234.37 251.143C235.589 255.056 238.03 254.81 236.077 258.72C234.126 262.631 230.222 264.341 231.929 264.097C233.637 263.852 236.81 262.385 237.786 262.63C238.762 262.873 239.25 261.897 240.714 262.63C242.179 263.363 242.423 261.653 242.179 263.363C241.934 265.074 241.934 263.363 241.934 265.074C241.934 266.784 241.446 263.363 244.375 264.097C247.303 264.83 245.594 262.629 249.01 265.807C252.428 268.985 252.428 268.008 253.646 269.718C254.867 271.427 256.087 268.742 256.82 269.474C257.553 270.205 259.748 269.717 261.945 270.206C264.141 270.694 262.676 268.741 266.094 270.939C269.509 273.138 272.926 272.405 273.658 274.361C274.39 276.315 276.343 275.582 277.318 276.805C278.293 278.027 278.782 276.315 279.759 278.027C280.734 279.736 283.664 279.247 283.175 280.957C282.686 282.67 283.906 281.691 283.418 284.134C282.931 286.58 281.221 290.49 279.759 291.466C278.294 292.445 278.295 293.666 277.318 294.887C276.342 296.111 276.586 293.666 275.366 297.087C274.146 300.509 274.39 300.998 273.414 304.174C272.438 307.35 273.17 304.174 272.438 307.351C271.706 310.528 272.194 312.483 271.463 316.149C270.731 319.814 270.975 319.815 270.487 322.503C269.999 325.192 271.706 321.283 269.51 326.902C267.315 332.524 267.071 332.277 266.339 334.722C265.606 337.167 266.583 335.211 263.898 336.678C261.214 338.145 262.679 337.655 259.505 338.633C256.334 339.61 252.429 340.589 251.209 340.833C249.989 341.076 245.108 342.543 246.573 345.474C248.038 348.408 248.038 348.896 246.573 352.563C245.108 356.227 242.913 357.451 242.913 359.16C242.913 360.87 241.936 362.58 241.693 363.803C241.448 365.025 243.889 362.58 240.962 366.247C238.033 369.912 237.789 368.935 236.812 371.135C235.837 373.333 236.812 371.622 235.837 373.333C234.861 375.043 232.42 375.776 232.42 375.776C232.42 375.776 232.663 376.999 231.688 376.51C230.711 376.023 230.956 376.754 227.294 375.776C223.634 374.799 223.146 372.357 222.659 374.066C222.171 375.776 222.902 376.755 225.099 378.465C227.294 380.177 230.956 380.664 229.979 382.376C229.003 384.087 229.003 384.087 228.271 385.065C227.538 386.043 229.247 385.309 227.538 386.043C225.831 386.776 224.854 389.954 224.122 389.954C223.39 389.954 222.901 391.175 221.926 390.687C220.95 390.197 218.51 388.487 218.022 389.464C217.534 390.44 216.557 388.241 216.801 391.663C217.046 395.084 217.534 397.039 216.313 397.773C215.093 398.506 212.164 397.773 212.164 397.773L211.676 396.551L209.968 397.039C209.968 397.039 209.236 399.972 210.456 400.46C211.676 400.949 211.432 401.436 212.652 402.903C213.872 404.37 213.141 407.058 213.141 407.058C213.141 407.058 213.141 407.792 211.921 409.014C210.701 410.235 210.212 411.213 209.968 411.946C209.723 412.679 208.26 415.857 210.456 415.612C212.652 415.366 214.361 414.145 214.361 418.056C214.361 421.966 215.337 420.989 214.117 423.677C212.897 426.365 211.921 426.609 211.677 429.052C211.434 431.496 211.922 431.74 212.41 433.207C212.898 434.674 214.119 433.94 212.898 434.674C211.683 435.369 208.03 434.642 208.03 434.642L208.02 434.675Z" fill="#2C8EBA"/>
<path d="M145.062 235.746L143.355 233.303C143.355 233.303 142.623 231.835 141.402 231.592C140.181 231.349 137.497 228.171 137.497 228.171C137.497 228.171 136.277 227.194 136.277 225.484C136.277 223.773 135.3 221.086 136.032 218.153C136.765 215.222 137.009 211.555 136.765 210.577C136.52 209.6 137.985 209.355 136.277 208.377C134.569 207.4 131.152 207.156 128.956 207.156C126.76 207.156 124.075 207.89 123.587 208.133C123.099 208.377 126.271 200.802 126.759 199.58C127.247 198.359 129.444 192.981 129.444 192.249C129.444 191.516 130.175 191.271 128.712 190.295C127.248 189.317 124.808 188.828 123.343 189.561C121.879 190.295 122.123 188.584 120.904 191.516C119.684 194.449 118.463 197.626 116.998 198.115C115.535 198.604 112.606 200.07 112.606 200.07C112.606 200.07 108.946 199.826 107.726 199.581C106.506 199.337 101.381 196.649 100.405 194.939C99.4294 193.228 98.9416 189.561 98.9416 187.852C98.9416 186.141 101.625 181.01 101.381 179.787C101.137 178.566 104.066 173.678 103.821 172.944C103.576 172.211 104.309 169.767 105.041 168.79C105.773 167.813 109.434 166.59 110.41 165.613C111.386 164.635 113.094 163.414 114.802 162.925C116.509 162.435 117.975 161.948 119.195 161.948C120.415 161.948 123.587 159.259 124.075 161.948C124.564 164.635 126.76 163.658 127.98 163.902C129.2 164.147 129.445 165.369 131.396 162.192C133.349 159.014 135.3 158.037 135.3 158.77C135.3 159.504 138.473 158.526 138.961 159.259C139.448 159.992 140.425 158.77 142.133 160.236C143.841 161.703 146.281 161.948 146.037 162.679C145.793 163.412 147.013 163.412 147.013 164.146C147.013 164.879 147.99 162.435 147.99 166.833C147.99 171.233 149.209 173.921 149.209 173.921C149.209 173.921 150.917 177.588 151.649 176.854C152.38 176.121 153.844 174.166 153.844 174.166C153.844 174.166 156.285 172.7 154.577 167.567C152.868 162.436 154.089 160.969 153.601 159.258C153.112 157.547 153.112 156.569 156.041 154.37C158.969 152.172 166.045 147.284 167.754 146.306C169.462 145.329 173.366 142.641 173.366 142.641C173.366 142.641 174.829 141.908 175.074 139.953C175.318 137.998 179.954 134.576 180.199 133.599C180.444 132.622 183.616 130.179 183.616 130.179C183.616 130.179 187.032 128.222 186.788 127.002C186.544 125.781 191.181 123.582 191.913 123.582C192.644 123.582 196.55 124.802 196.55 122.603C196.55 120.404 196.55 119.914 198.99 117.96C201.429 116.006 204.602 113.072 205.823 113.072C207.042 113.072 211.191 110.874 212.899 110.385C214.608 109.895 219.976 107.451 215.095 110.385C210.214 113.316 213.387 111.606 212.411 114.05C211.436 116.493 210.702 119.671 215.339 116.005C219.976 112.339 219.731 111.605 221.44 111.362C223.149 111.118 221.928 112.095 225.588 110.872C229.249 109.651 229.493 109.162 229.493 109.162C229.493 109.162 231.202 107.695 230.225 106.964C229.249 106.23 231.202 105.253 227.541 106.718C223.88 108.185 224.124 108.429 221.684 107.695C219.245 106.963 215.583 107.206 218.268 104.762C220.952 102.319 224.368 101.585 222.172 100.608C219.976 99.6305 214.364 100.853 213.632 101.096C212.899 101.341 211.191 100.852 209.727 101.096C208.263 101.341 208.751 99.1431 209.727 98.6534C210.703 98.1637 213.876 96.6969 217.78 95.7197C221.684 94.7426 231.202 94.4983 233.397 94.4983C235.593 94.4983 238.521 94.9879 240.23 93.7654C241.937 92.5439 245.355 90.5896 245.843 89.6103C246.332 88.6331 248.283 87.1674 248.283 87.1674C248.283 87.1674 250.478 84.9677 249.259 83.9905C248.039 83.0133 246.818 80.8136 245.843 81.3022C244.867 81.7908 245.6 84.7244 243.647 81.5465C241.695 78.3707 241.938 77.881 240.963 77.1482C239.987 76.4153 239.01 76.9028 239.743 73.4827C240.475 70.0616 240.231 68.5947 240.231 68.5947C240.231 68.5947 240.963 65.6632 240.231 65.4189C239.498 65.1735 239.011 64.4418 237.791 65.1736C236.571 65.9064 229.738 69.3287 228.275 70.0616C226.81 70.7944 224.857 67.129 225.589 65.4189C226.322 63.7067 225.833 64.685 224.857 62.2421C223.882 59.7981 219.977 59.3084 218.513 59.3084C217.048 59.3084 213.633 57.1087 212.656 58.5755C211.68 60.0413 206.556 64.6839 205.579 65.1736C204.603 65.6632 203.139 61.0195 202.407 68.5947C201.674 76.1721 205.092 78.3707 201.188 78.8593C197.284 79.3479 193.866 81.5465 193.866 81.5465C193.866 81.5465 190.695 81.7919 190.695 83.7462C190.695 85.7027 189.475 90.3442 188.01 90.8328C186.546 91.3225 182.885 90.5896 181.665 89.1228C180.445 87.6559 181.909 82.2804 181.909 82.2804L184.105 80.0807C184.105 80.0807 168.488 77.6378 168.731 76.6596C168.976 75.6824 164.095 73.9724 163.607 72.5055C163.119 71.0387 162.874 67.8618 163.363 66.6404C163.851 65.4189 170.439 59.5538 173.856 58.3323C177.272 57.1098 183.129 54.4226 184.837 53.9329C186.546 53.4443 189.473 53.6886 190.45 52.4672C191.426 51.2446 191.67 49.046 191.67 49.046C191.67 49.046 191.182 45.6237 192.158 46.1123C193.133 46.602 194.842 47.3349 195.086 48.0677C195.331 48.8006 195.331 50.5117 197.039 48.5552C198.747 46.6009 200.944 45.867 202.895 44.8909C204.848 43.9126 207.775 44.158 209.485 43.1808C211.192 42.2037 214.121 41.2254 214.365 38.7814C214.609 36.3385 213.633 37.0714 212.412 36.826C211.192 36.5828 212.9 37.0714 208.752 39.0257C204.603 40.98 205.824 39.5143 202.895 40.98C199.967 42.4469 199.722 42.6912 199.479 41.4697C199.234 40.2472 199.967 38.2928 199.967 38.2928C199.967 38.2928 200.212 38.0475 198.503 37.56C196.795 37.0714 196.795 37.8043 196.551 35.6056C196.307 33.4059 197.77 30.2291 195.331 31.2062C192.891 32.1834 190.695 30.4734 188.986 35.3603C187.278 40.2472 181.421 45.3805 179.956 44.158C178.493 42.9365 178.249 42.6912 177.028 42.6912C175.807 42.6912 174.1 41.2254 171.903 40.9811C169.707 40.7368 163.117 40.7368 161.41 40.9811C159.702 41.2265 157.75 40.004 156.285 41.4708C154.821 42.9365 152.625 44.892 152.625 45.6259C152.625 46.3588 150.429 42.9365 149.697 43.1819C148.965 43.4262 147.012 42.2048 144.817 42.2048C142.621 42.2048 141.156 40.9822 140.425 40.9822C139.693 40.9822 141.156 39.0268 140.425 38.7825C139.693 38.5393 123.83 38.0496 123.83 38.0496C123.83 38.0496 118.706 36.0953 116.755 36.3396C114.802 36.5839 109.434 36.8271 105.284 37.5611C101.135 38.2939 95.0342 40.7379 93.0827 40.9822C91.1301 41.2276 86.7381 41.2276 86.0063 40.0051C85.2734 38.7836 86.2502 39.0279 85.2734 38.7836C84.2977 38.5404 85.0305 38.0507 82.834 36.3407C80.6375 34.6296 83.8109 33.1638 79.4178 33.1638C75.0258 33.1638 72.3414 32.9184 68.4373 33.1638C64.5321 33.4081 56.48 35.3624 55.5042 35.1181C54.5285 34.8739 46.7192 36.3407 45.4984 35.6078C44.2787 34.8739 38.177 38.295 36.9584 38.0507C35.7387 37.8064 31.1017 38.2961 29.882 39.029C28.6612 39.7629 22.8045 41.2276 24.7571 42.4501C26.7086 43.6716 26.4647 44.893 26.7086 45.627C26.9536 46.3599 24.7571 48.0699 24.7571 48.0699C24.7571 48.0699 24.2681 48.0699 21.5848 47.0928C18.9004 46.1145 15.972 45.627 14.7513 46.3599C13.5316 47.0928 11.335 48.5607 11.8229 49.5378C12.3119 50.515 15.727 52.7147 16.216 51.9807C16.7039 51.2479 17.9246 49.7821 19.3883 50.0264C20.853 50.2718 23.0495 49.0492 21.0969 51.4932C19.1443 53.9362 17.4357 55.1587 16.216 55.4041C14.9963 55.6473 12.0679 55.8916 9.38352 56.137C6.69803 56.3823 6.94197 55.1598 4.50258 57.6038C2.06319 60.0467 1.08635 58.5809 0.598477 61.2692C0.1106 63.9564 -0.377278 63.9564 0.598477 64.6904C1.57423 65.4233 -1.35412 65.6676 0.842416 66.4004C3.03786 67.1344 5.72227 67.8673 5.47834 68.5991C5.23331 69.333 7.91881 67.623 6.45409 69.5762C4.98937 71.5327 4.0147 73.2417 6.94197 71.2873C9.87032 69.333 11.5779 70.7977 14.0184 69.5762C16.4588 68.3548 18.8993 68.1105 20.3629 67.1333C21.8277 66.1551 22.5595 64.6904 24.756 63.9554C26.9525 63.2225 25.4878 64.2007 25.7318 65.4222C25.9757 66.6436 25.7318 66.8879 27.1965 65.9097C28.6601 64.9325 28.6601 65.6665 30.6127 64.4439C32.5642 63.2225 34.7607 61.9999 36.2255 62.7328C37.6891 63.4668 38.177 63.4668 39.1538 63.4668C40.1296 63.4668 37.9341 63.2214 40.1296 63.4668C42.3261 63.71 39.1538 62.7328 46.4741 64.4439C53.7956 66.154 55.7481 64.9325 56.2349 67.6208C56.7239 70.3091 57.6997 67.3754 58.9193 69.0866C60.139 70.7966 60.8719 69.3319 61.6038 72.2634C62.3356 75.1971 61.6038 83.2609 61.1159 84.238C60.628 85.2152 60.3841 85.2152 60.628 87.4149C60.8719 89.6135 63.8003 100.123 62.8245 100.855C61.8488 101.587 59.6522 101.832 59.6522 101.832L58.4326 106.231C58.4326 106.231 56.481 109.896 54.7724 111.852C53.0637 113.806 50.8683 116.251 49.6475 117.96C48.4278 119.671 47.451 122.605 45.7434 124.315C44.0358 126.025 42.5711 125.292 43.059 128.957C43.5469 132.623 43.059 136.533 43.5469 139.222C44.0358 141.91 45.2555 145.576 46.2313 147.043C47.207 148.508 47.9399 148.508 49.6475 149.73C51.3562 150.951 53.5527 152.419 53.3077 153.641C53.0637 154.862 53.5516 162.439 53.5516 162.439C53.5516 162.439 55.0163 164.882 55.2592 167.571C55.5042 170.26 57.2118 172.947 57.2118 172.947L58.6765 176.125C58.6765 176.125 59.4083 176.371 60.3851 178.324C61.3609 180.279 61.3609 180.279 61.6048 181.255C61.8499 182.235 61.8499 181.989 61.8499 182.235C61.8499 182.478 61.6048 178.079 61.117 176.857C60.6291 175.636 60.6291 174.17 60.1412 172.703C59.6533 171.236 60.3852 169.525 58.9215 167.326C57.4579 165.128 57.4579 164.882 56.7261 162.683C55.9943 160.484 55.0174 158.04 55.9943 157.55C56.97 157.063 57.7018 153.886 59.6544 157.55C61.6059 161.216 61.8509 160.24 62.0949 163.172C62.3377 166.105 63.0706 167.083 63.8025 168.303C64.5343 169.525 66.2418 173.681 67.2187 175.39C68.1944 177.101 67.2187 174.413 69.4141 177.834C71.6107 181.255 71.8557 181.988 73.0754 184.676C74.2951 187.365 75.028 187.365 75.7598 189.319C76.4916 191.276 76.0037 190.786 75.5148 192.985C75.0269 195.183 76.0026 197.628 76.0026 197.628C76.0026 197.628 79.4189 198.85 79.6628 199.583C79.9067 200.315 83.323 201.537 83.8119 202.515C84.2998 203.493 87.4721 204.714 87.4721 204.714C87.4721 204.714 90.1565 206.425 91.1312 206.913C92.108 207.402 95.0375 207.892 95.0375 207.892C95.0375 207.892 96.989 208.381 97.7208 208.625C98.4526 208.869 100.649 208.869 100.649 208.869C100.649 208.869 102.602 207.403 103.334 207.892C104.065 208.379 105.774 206.913 106.506 208.135C107.238 209.357 108.702 209.357 109.434 210.336C110.166 211.313 110.898 211.313 112.119 212.534C113.339 213.756 114.559 213.511 115.779 214.489C116.998 215.466 117.974 215.466 119.439 215.466C120.903 215.466 120.903 215.466 121.879 215.711C122.854 215.955 123.343 214.977 124.319 216.201C125.295 217.422 126.026 218.155 126.758 219.377C127.49 220.598 129.199 220.598 129.443 222.554C129.687 224.508 130.174 224.266 130.174 225.975C130.174 227.686 131.15 228.419 131.883 228.908C132.614 229.396 135.298 231.839 135.298 231.839L138.958 232.573L141.887 234.772L144.977 235.75L145.062 235.746Z" fill="#2C8EBA"/>
<path d="M223.274 8.71825L237.916 6.88552C237.916 6.88552 243.04 6.88552 245.603 5.05279C248.165 3.22007 245.603 3.22007 253.29 1.75432C260.977 0.287489 258.781 -0.445385 262.808 0.287489C266.833 1.02145 267.931 1.02145 272.325 1.75432C276.717 2.4872 277.815 1.38843 281.84 2.4872C285.867 3.58705 287.697 3.22007 290.992 3.22007H301.241C306.365 3.22007 311.124 0.287489 312.954 2.12022C314.784 3.95294 315.882 3.22007 322.105 3.95294C328.327 4.68582 330.89 3.21898 333.452 3.95294C336.015 4.68582 340.408 3.58705 345.532 3.95294C350.656 4.31884 353.219 3.58705 355.049 3.58705C356.879 3.58705 358.708 1.02036 361.271 3.22007C363.834 5.41977 367.128 2.4872 367.493 5.41977C367.86 8.35235 372.618 6.15265 367.86 8.35235C363.101 10.5521 363.833 10.1851 360.538 13.1177C357.245 16.0502 362.735 18.6158 355.78 21.1825C348.825 23.7481 347.727 19.7157 345.896 24.1151C344.066 28.5134 345.896 29.6133 345.531 31.813C345.165 34.0116 344.433 34.3786 342.236 36.2113C340.041 38.044 340.041 36.2113 334.916 37.3112C329.791 38.411 326.131 39.5109 323.936 39.5109C321.739 39.5109 316.981 41.3436 315.516 42.0765C314.051 42.8104 318.079 43.9092 310.391 46.1089C302.704 48.3086 300.873 47.9427 298.678 50.8742C296.481 53.8079 297.213 54.1749 295.749 56.0076C294.284 57.8403 289.892 65.1723 287.696 63.3396C285.5 61.5069 284.401 61.8727 282.571 60.04C280.741 58.2073 279.643 55.6417 278.544 54.1749C277.446 52.708 277.08 49.0426 276.714 46.8429C276.349 44.6432 273.053 39.512 276.714 40.2448C280.375 40.9777 282.571 40.6118 283.669 39.8789C284.768 39.145 285.866 36.5794 285.866 36.5794C285.866 36.5794 285.501 32.5469 284.401 30.3472C283.303 28.1475 284.036 26.3148 282.206 24.1162C280.376 21.9165 280.376 22.2835 277.813 20.0838C275.251 17.8841 275.983 16.7842 271.956 16.4183C267.929 16.0524 266.831 14.9515 265.366 15.3185C263.903 15.6843 259.144 12.7518 264.268 12.3859C269.393 12.0189 274.151 12.7518 274.151 12.7518C274.151 12.7518 280.74 9.81919 278.544 9.45329C276.349 9.08631 281.838 5.78675 276.714 6.88661C271.589 7.98646 265.734 9.45329 264.269 9.81919C262.806 10.1851 259.144 10.5521 255.484 11.6519C251.825 12.7518 247.431 12.3859 245.235 14.9515C243.039 17.5171 245.235 17.8841 243.039 17.5171C240.843 17.1512 244.869 14.9515 239.745 17.5171C234.62 20.0838 236.085 19.7168 233.523 18.9839C230.96 18.251 229.13 17.1512 229.13 17.1512C229.13 17.1512 232.426 16.7842 227.666 16.4183C222.908 16.0524 222.908 16.0524 221.078 13.8516C219.248 11.6519 220.346 11.6519 221.443 10.919C222.527 10.1851 223.265 8.71825 223.265 8.71825H223.274Z" fill="#2C8EBA"/>
<path d="M215.219 25.2139C213.389 27.0466 208.996 29.6133 210.095 30.7131C211.193 31.813 211.925 35.8454 214.122 34.7456C216.317 33.6457 213.755 29.9803 222.174 32.9128C230.594 35.8454 229.861 32.5469 231.691 36.9453C233.521 41.3436 234.985 44.6421 233.886 45.743C232.789 46.8429 232.423 47.9427 228.761 49.0426C225.101 50.1424 223.636 51.6093 226.199 53.4409C228.761 55.2736 233.521 57.1063 235.716 58.2073C237.913 59.3061 244.501 59.6741 241.207 56.0087C237.912 52.3432 241.938 51.2423 241.938 51.2423C241.938 51.2423 248.162 56.0087 245.966 50.5094C243.77 45.0112 242.305 45.0112 243.77 45.0112C245.234 45.0112 248.162 46.8439 248.162 46.8439L249.626 43.9114L248.162 39.1461L243.403 34.3808C243.403 34.3808 247.429 30.7153 241.938 29.9824C236.448 29.2496 236.814 29.2496 233.885 27.4157C230.957 25.583 230.591 24.8501 225.1 25.95C219.61 27.0499 217.78 27.7827 217.78 27.7827L215.232 25.2139H215.219Z" fill="#2C8EBA"/>
<path d="M133.592 29.6131C135.788 27.4134 141.645 22.2822 143.841 23.748C146.037 25.2137 149.331 22.6481 151.894 24.8478C154.455 27.0475 157.384 29.6131 159.58 30.346C161.777 31.0789 164.339 28.5133 166.535 29.6131C168.731 30.713 176.418 24.1149 174.954 29.2472C173.489 34.3795 176.784 35.8453 172.757 36.2122C168.731 36.5792 164.339 39.5118 162.508 38.412C160.678 37.3121 159.213 36.2122 156.284 37.6791C153.356 39.1448 154.821 39.1448 151.526 38.412C148.232 37.6791 147.501 39.1448 146.769 38.045C146.036 36.9462 143.84 37.3121 144.206 34.0125C144.571 30.7141 145.669 31.08 143.473 31.08C141.277 31.08 139.447 31.4469 137.983 30.3471C136.53 29.2472 133.603 29.6131 133.603 29.6131H133.592Z" fill="#2C8EBA"/>
<g filter="url(#filter0_f_114_305)">
<ellipse cx="640.5" cy="197.619" rx="6.5" ry="5.61931" fill="#71D3FF"/>
</g>
<g filter="url(#filter1_f_114_305)">
<path d="M645.5 197.619C645.5 199.965 643.29 201.914 640.5 201.914C637.71 201.914 635.5 199.965 635.5 197.619C635.5 195.273 637.71 193.324 640.5 193.324C643.29 193.324 645.5 195.273 645.5 197.619Z" stroke="white" strokeWidth="0.4"/>
</g>
<g filter="url(#filter2_f_114_305)">
<ellipse cx="640.5" cy="197.619" rx="2.6" ry="2.24772" fill="white"/>
</g>
<g filter="url(#filter3_f_114_305)">
<ellipse cx="52.4449" cy="128.572" rx="6.44488" ry="5.57166" fill="#71D3FF"/>
</g>
<g filter="url(#filter4_f_114_305)">
<path d="M57.4007 128.572C57.4007 130.896 55.2102 132.829 52.4448 132.829C49.6794 132.829 47.4889 130.896 47.4889 128.572C47.4889 126.247 49.6794 124.314 52.4448 124.314C55.2102 124.314 57.4007 126.247 57.4007 128.572Z" stroke="white" strokeWidth="0.4"/>
</g>
<g filter="url(#filter5_f_114_305)">
<ellipse cx="52.4449" cy="128.571" rx="2.57795" ry="2.22866" fill="white"/>
</g>
<path d="M51.5 128C177.5 15.5 446.5 -44.5002 640 196" stroke="white" strokeWidth="2"/>
<defs>
<filter id="filter0_f_114_305" x="632" y="190" width="17" height="15.2388" filterUnits="userSpaceOnUse" colorInterpolationFilters="sRGB">
<feFlood flood-opacity ="0" result="BackgroundImageFix"/>
<feBlend mode="normal" in="SourceGraphic" in2="BackgroundImageFix" result="shape"/>
<feGaussianBlur stdDeviation="1" result="effect1_foregroundBlur_114_305"/>
</filter>
<filter id="filter1_f_114_305" x="634.8" y="192.624" width="11.4" height="9.99072" filterUnits="userSpaceOnUse" colorInterpolationFilters="sRGB">
<feFlood flood-opacity ="0" result="BackgroundImageFix"/>
<feBlend mode="normal" in="SourceGraphic" in2="BackgroundImageFix" result="shape"/>
<feGaussianBlur stdDeviation="0.25" result="effect1_foregroundBlur_114_305"/>
</filter>
<filter id="filter2_f_114_305" x="637.4" y="194.872" width="6.19995" height="5.49561" filterUnits="userSpaceOnUse" colorInterpolationFilters="sRGB">
<feFlood flood-opacity ="0" result="BackgroundImageFix"/>
<feBlend mode="normal" in="SourceGraphic" in2="BackgroundImageFix" result="shape"/>
<feGaussianBlur stdDeviation="0.25" result="effect1_foregroundBlur_114_305"/>
</filter>
<filter id="filter3_f_114_305" x="44" y="121" width="16.8898" height="15.1436" filterUnits="userSpaceOnUse" colorInterpolationFilters="sRGB">
<feFlood flood-opacity ="0" result="BackgroundImageFix"/>
<feBlend mode="normal" in="SourceGraphic" in2="BackgroundImageFix" result="shape"/>
<feGaussianBlur stdDeviation="1" result="effect1_foregroundBlur_114_305"/>
</filter>
<filter id="filter4_f_114_305" x="46.7889" y="123.614" width="11.3118" height="9.91455" filterUnits="userSpaceOnUse" colorInterpolationFilters="sRGB">
<feFlood flood-opacity ="0" result="BackgroundImageFix"/>
<feBlend mode="normal" in="SourceGraphic" in2="BackgroundImageFix" result="shape"/>
<feGaussianBlur stdDeviation="0.25" result="effect1_foregroundBlur_114_305"/>
</filter>
<filter id="filter5_f_114_305" x="49.3669" y="125.843" width="6.15588" height="5.45752" filterUnits="userSpaceOnUse" colorInterpolationFilters="sRGB">
<feFlood flood-opacity ="0" result="BackgroundImageFix"/>
<feBlend mode="normal" in="SourceGraphic" in2="BackgroundImageFix" result="shape"/>
<feGaussianBlur stdDeviation="0.25" result="effect1_foregroundBlur_114_305"/>
</filter>
</defs>
</svg>
